<?xml version="1.0" standalone="no"?>
<!DOCTYPE svg PUBLIC "-//W3C//DTD SVG 20010904//EN"
 "http://www.w3.org/TR/2001/REC-SVG-20010904/DTD/svg10.dtd">
<svg version="1.0" xmlns="http://www.w3.org/2000/svg"
 width="234.000000pt" height="333.000000pt" viewBox="0 0 234.000000 333.000000"
 preserveAspectRatio="xMidYMid meet">
<metadata>
Created by potrace 1.16, written by Peter Selinger 2001-2019
</metadata>
<g transform="translate(0.000000,333.000000) scale(0.100000,-0.100000)"
fill="#000000" stroke="none">
<path d="M103 3236 c-29 -14 -31 -46 -3 -46 18 0 20 -7 20 -89 0 -82 -2 -89
-21 -94 -35 -9 -16 -32 29 -35 37 -3 42 -1 42 17 0 12 -7 21 -15 21 -12 0 -15
20 -15 120 0 66 -3 119 -7 119 -5 -1 -18 -6 -30 -13z"/>
<path d="M188 3228 c-17 -31 -17 -205 0 -235 18 -32 50 -29 64 5 14 35 14 189
0 225 -14 33 -46 36 -64 5z m46 -34 c10 -25 7 -158 -4 -174 -18 -27 -30 9 -30
87 0 73 6 103 20 103 4 0 11 -7 14 -16z"/>
<path d="M523 2934 c-69 -34 -95 -133 -53 -201 l20 -33 -43 0 c-80 0 -140 -58
-140 -135 0 -117 131 -185 224 -116 l29 22 0 -46 c0 -41 2 -45 25 -45 23 0 25
3 25 50 l0 49 26 -24 c100 -93 268 18 225 148 -19 57 -62 90 -125 95 l-55 4
22 30 c30 40 29 113 -1 155 -41 58 -117 77 -179 47z"/>
<path d="M1694 2936 c-74 -32 -104 -141 -56 -205 l23 -31 -50 0 c-149 0 -191
-209 -55 -266 19 -8 45 -14 59 -14 31 0 101 34 108 52 3 7 6 -11 6 -39 1 -50
3 -53 26 -53 23 0 25 4 25 46 l0 45 31 -22 c95 -68 222 -1 222 116 0 77 -60
135 -140 135 l-43 0 20 33 c25 40 26 109 3 149 -21 35 -80 68 -120 68 -15 -1
-42 -7 -59 -14z"/>
<path d="M151 2899 c-19 -8 -23 -15 -19 -44 3 -27 0 -35 -12 -35 -37 0 -55
-55 -25 -80 8 -7 26 -10 40 -8 13 3 27 0 30 -6 3 -8 7 -7 11 1 3 8 16 10 34 7
23 -5 31 -1 45 19 20 30 6 67 -24 67 -15 0 -19 7 -17 31 1 39 -28 61 -63 48z"/>
<path d="M1127 2605 c-46 -16 -64 -30 -83 -66 -22 -43 -18 -101 10 -142 l24
-35 -37 5 c-74 10 -141 -47 -149 -126 -8 -88 50 -151 138 -151 40 0 100 25
100 42 0 4 5 8 10 8 6 0 10 -20 10 -45 0 -38 3 -45 20 -45 17 0 20 7 20 45 l0
46 37 -26 c71 -48 172 -26 209 46 49 96 -33 220 -137 206 l-37 -5 24 35 c73
108 -36 251 -159 208z"/>
<path d="M513 2260 c-63 -38 -83 -132 -42 -199 l20 -33 -24 6 c-59 14 -139
-39 -157 -104 -20 -74 36 -161 113 -175 37 -7 91 11 120 39 16 16 17 15 17
-28 0 -42 2 -46 25 -46 23 0 25 4 25 46 l0 46 30 -26 c42 -35 86 -41 138 -21
79 32 109 108 74 188 -24 54 -66 80 -129 80 l-41 0 21 29 c27 36 28 114 3 152
-41 63 -131 84 -193 46z"/>
<path d="M1679 2257 c-68 -45 -86 -134 -40 -198 l19 -26 -43 0 c-61 0 -109
-33 -131 -88 -29 -77 2 -149 78 -180 52 -20 96 -14 138 21 l30 26 0 -46 c0
-42 2 -46 25 -46 23 0 25 4 25 46 0 43 1 44 17 28 10 -9 33 -23 52 -31 97 -41
211 64 181 167 -19 67 -98 118 -157 103 l-24 -5 20 33 c27 44 27 113 1 156
-38 64 -128 83 -191 40z"/>
<path d="M560 1564 c0 -43 -1 -44 -17 -28 -10 9 -33 23 -52 31 -98 41 -210
-63 -181 -168 18 -65 98 -117 157 -103 l24 6 -20 -33 c-25 -41 -27 -108 -6
-150 46 -89 184 -91 241 -3 25 38 24 116 -3 152 l-21 29 41 0 c63 0 105 26
129 80 35 80 5 156 -74 188 -52 20 -96 14 -138 -21 l-30 -26 0 46 c0 42 -2 46
-25 46 -23 0 -25 -4 -25 -46z"/>
<path d="M1730 1564 l0 -46 -30 26 c-42 35 -86 41 -138 21 -144 -58 -102 -268
53 -268 l43 0 -19 -26 c-87 -120 61 -279 188 -201 63 38 83 132 42 199 l-20
33 24 -6 c59 -14 139 39 157 104 20 74 -36 161 -113 175 -38 7 -104 -15 -124
-42 -11 -14 -13 -10 -13 30 0 43 -2 47 -25 47 -23 0 -25 -4 -25 -46z"/>
<path d="M1150 1235 l0 -46 -37 26 c-71 48 -172 26 -209 -46 -24 -48 -15 -122
21 -159 34 -35 86 -54 125 -46 l29 5 -25 -36 c-63 -93 3 -216 117 -216 109 0
176 126 115 216 l-24 35 37 -5 c104 -14 186 110 137 206 -37 72 -138 94 -209
46 l-37 -26 0 46 c0 38 -3 45 -20 45 -17 0 -20 -7 -20 -45z"/>
<path d="M560 905 l0 -46 -29 22 c-93 69 -224 1 -224 -116 0 -77 60 -135 140
-135 l43 0 -20 -32 c-26 -43 -26 -111 0 -153 72 -116 252 -63 254 76 1 34 -5
56 -21 77 l-22 30 55 4 c63 5 106 38 125 95 43 130 -125 241 -225 148 l-26
-24 0 49 c0 47 -2 50 -25 50 -23 0 -25 -4 -25 -45z"/>
<path d="M1729 898 c0 -29 -3 -47 -6 -40 -3 7 -22 21 -44 32 -149 76 -280
-109 -159 -225 23 -22 41 -29 85 -33 l55 -4 -20 -25 c-31 -39 -35 -84 -12
-136 34 -76 108 -105 183 -72 74 34 103 131 59 203 l-20 32 44 0 c108 0 175
117 120 211 -41 69 -136 87 -203 40 l-31 -22 0 45 c0 42 -2 46 -25 46 -23 0
-25 -3 -26 -52z"/>
<path d="M2160 600 c0 -5 -13 -7 -29 -4 -24 5 -32 1 -46 -19 -20 -31 -6 -67
25 -67 16 0 19 -5 14 -29 -5 -22 -1 -32 16 -44 35 -25 65 -8 65 37 0 26 4 36
16 36 36 0 53 56 24 80 -8 7 -26 10 -40 8 -14 -3 -25 -1 -25 3 0 5 -4 9 -10 9
-5 0 -10 -4 -10 -10z"/>
<path d="M2089 338 c-16 -29 -16 -194 -1 -230 14 -34 46 -37 64 -5 8 13 13 59
13 117 0 102 -12 140 -45 140 -11 0 -25 -10 -31 -22z m45 -34 c10 -25 7 -158
-4 -174 -18 -27 -30 9 -30 87 0 73 6 103 20 103 4 0 11 -7 14 -16z"/>
<path d="M2170 341 c0 -12 7 -21 15 -21 13 0 15 -20 15 -121 0 -93 3 -119 13
-115 6 3 20 9 30 12 24 9 22 44 -3 44 -18 0 -20 7 -20 89 0 82 2 89 21 94 35
9 16 32 -29 35 -37 3 -42 1 -42 -17z"/>
</g>
</svg>
